<?xml version="1.0" standalone="no"?>
<!DOCTYPE svg PUBLIC "-//W3C//DTD SVG 20010904//EN"
 "http://www.w3.org/TR/2001/REC-SVG-20010904/DTD/svg10.dtd">
<svg version="1.0" xmlns="http://www.w3.org/2000/svg"
 width="700.000000pt" height="700.000000pt" viewBox="0 0 700.000000 700.000000"
 preserveAspectRatio="xMidYMid meet">
<metadata>
Created by potrace 1.14, written by Peter Selinger 2001-2017
</metadata>
<g transform="translate(0.000000,700.000000) scale(0.100000,-0.100000)"
fill="#000000" stroke="none">
<path d="M630 6985 c-313 -63 -547 -297 -615 -614 -21 -97 -21 -5630 -1 -5736
41 -204 162 -389 331 -501 74 -50 129 -75 225 -106 l75 -23 2850 0 2850 0 80
23 c290 83 504 313 560 602 21 111 22 5640 0 5741 -58 269 -242 487 -489 578
-143 53 23 50 -2996 50 -2272 -1 -2817 -3 -2870 -14z"/>
</g>
</svg>
